<svg xmlns="http://www.w3.org/2000/svg" xmlns:xlink="http://www.w3.org/1999/xlink" version="1.1" width="48" height="60"  style="enable-background:new 0 0 48 48;" xml:space="preserve"><g><g><path d="M38,16.9199219c0-0.8457031-0.3291016-1.6411133-0.9277344-2.2392578    c-1.2333984-1.2333984-3.2431641-1.234375-4.4785156,0l-1.1982422,1.1982422    c-0.6259766-0.3295898-1.3134766-0.609375-2.0615234-0.8349609V11c0-2.9404297-2.3925781-5.3330078-5.3339844-5.3330078    c-2.9404297,0-5.3330078,2.3925781-5.3330078,5.3330078v4.043457c-0.7490234,0.2255859-1.4360352,0.5053711-2.0620117,0.8354492    l-1.1982422-1.1982422c-1.234375-1.2353516-3.2441406-1.2353516-4.4785156,0    c-1.2348633,1.2348633-1.2348633,3.2436523,0,4.4785156l1.605957,1.6064453    c-0.2363281,0.8276367-0.3676758,1.722168-0.3676758,2.6923828c0,2.2333984,0.6176758,4.6181641,1.675293,6.8027344    l-1.4995117,1.4990234c-1.2348633,1.234375-1.2348633,3.2441406,0,4.4785156    c0.6171875,0.6171875,1.4282227,0.9257812,2.2392578,0.9257812s1.6220703-0.3085938,2.2392578-0.9257812l0.8525391-0.8525391    C19.2373047,36.75,21.0478516,37.6835938,23,37.9248047v1.2421875c0,1.7460938,1.4208984,3.1669922,3.1669922,3.1669922    c0.5527344,0,1-0.4472656,1-1s-0.4472656-1-1-1C25.5234375,40.3339844,25,39.8105469,25,39.1669922v-1.2421875    c1.9521484-0.2421875,3.7626953-1.1748047,5.3271484-2.5390625l0.8525391,0.8525391    c0.6171875,0.6171875,1.4287109,0.9257812,2.2392578,0.9257812s1.6220703-0.3085938,2.2392578-0.9257812    c1.234375-1.234375,1.234375-3.2441406,0-4.4785156l-1.5-1.5c1.0566406-2.1845703,1.6748047-4.5693359,1.6748047-6.8017578    c0-0.9697266-0.1308594-1.8642578-0.3671875-2.6914062l1.6064453-1.6069336C37.6708984,18.5615234,38,17.7661133,38,16.9199219z     M33.8330078,23.4580078c0,2.1318359-0.6484375,4.4404297-1.7382812,6.4902344    c-0.03125,0.0527344-0.0693359,0.1005859-0.0908203,0.1572266c-0.6464844,1.1816406-1.4394531,2.2675781-2.3417969,3.1796875    c-0.0039062,0.0039062-0.0087891,0.0048828-0.0126953,0.0087891c-0.0048828,0.0048828-0.0058594,0.0117188-0.0107422,0.0166016    C28.0244141,34.9345703,26.0732422,36,24,36c-2.0703125,0-4.0200195-1.0625-5.6328125-2.6835938    c-0.0068359-0.0068359-0.0087891-0.0166016-0.015625-0.0234375c-0.0053711-0.0058594-0.0126953-0.0068359-0.0180664-0.0117188    c-0.9018555-0.9140625-1.6958008-2-2.3417969-3.1826172c-0.0141602-0.0371094-0.0410156-0.0683594-0.0600586-0.1044922    c-1.1054688-2.0605469-1.7651367-4.3876953-1.7651367-6.5361328c0-5.8886719,5.3476562-7.1245117,9.8334961-7.1245117    C28.4853516,16.3334961,33.8330078,17.5693359,33.8330078,23.4580078z M20.6669922,11    c0-1.8378906,1.4951172-3.3330078,3.3330078-3.3330078S27.3339844,9.1621094,27.3339844,11v3.5922852    C26.3037109,14.4272461,25.1972656,14.3334961,24,14.3334961s-2.3027344,0.0932617-3.3330078,0.2587891V11z     M12.3422852,17.7451172c-0.4550781-0.4550781-0.4550781-1.1953125,0-1.6503906s1.1953125-0.4550781,1.6503906,0    l0.925293,0.925293c-0.6040039,0.5214844-1.1225586,1.1074219-1.53125,1.7700195L12.3422852,17.7451172z M13.7563477,34.8242188    c-0.4550781-0.4550781-0.4550781-1.1953125,0-1.6503906l1.0908203-1.0908203    c0.4282227,0.6689453,0.9052734,1.296875,1.4150391,1.8857422l-0.8554688,0.8554688    C14.9516602,35.2792969,14.2114258,35.2792969,13.7563477,34.8242188z M34.2441406,33.1738281    c0.4550781,0.4550781,0.4550781,1.1953125,0,1.6503906s-1.1953125,0.4550781-1.6503906,0l-0.8564453-0.8564453    c0.5097656-0.5888672,0.9873047-1.2167969,1.4150391-1.8857422L34.2441406,33.1738281z M35.6582031,17.7451172    l-1.0449219,1.0454102c-0.4091797-0.6625977-0.9267578-1.2485352-1.53125-1.7700195l0.9257812-0.925293    c0.4550781-0.4550781,1.1953125-0.4545898,1.6503906-0.0004883C35.8789062,16.3154297,36,16.6083984,36,16.9199219    S35.8789062,17.5244141,35.6582031,17.7451172z" fill="#FFFFFF"/></g></g></svg>