<svg width="109" height="109" viewBox="0 0 109 109" fill="none" xmlns="http://www.w3.org/2000/svg">
<path d="M107.061 24.537H96.5793L96.3664 23.5823C94.9792 17.3515 91.7094 11.816 86.9093 7.5647C81.3973 2.68792 74.3055 0 66.9441 0C58.8909 0 51.3198 3.14034 45.625 8.83212C39.9301 14.5307 36.7934 22.102 36.7934 30.1526C36.7934 34.9097 37.9311 39.6468 40.08 43.8483C41.4472 46.5196 43.207 48.9746 45.3159 51.1437L46.5998 52.4709L44.8801 53.1328C41.9462 54.2572 38.7826 54.8295 35.4862 54.8295C29.4056 54.8295 23.724 52.8535 19.4828 49.2639L3.26639 33.153C2.92044 32.8237 2.44144 32.6274 1.93923 32.6274C0.871365 32.6274 0 33.499 0 34.5701L0.0131993 79.6326C0.226091 87.5567 3.45608 94.9317 9.1043 100.441C14.7659 105.96 22.2403 109 30.1505 109H71.8541C79.9073 109 87.475 105.866 93.1664 100.174C98.8578 94.4859 101.995 86.9178 101.995 78.8608C101.995 68.6048 96.8522 59.1472 88.2467 53.5618L86.9694 52.7334L88.0538 51.6689C90.1063 49.6595 91.8559 47.3642 93.2631 44.856L93.5424 44.3503L94.1146 44.2505C98.0165 43.5585 101.503 41.6556 104.197 38.7416C107.293 35.3951 109 31.0404 109 26.4798C109 25.4052 108.128 24.537 107.061 24.537ZM104.689 29.9361C103.192 35.8209 98.1459 40.1056 92.1318 40.6045L91.0341 40.6909L90.5485 41.6856C88.7355 45.3882 86.0411 48.6516 82.7247 51.1533V51.1633L82.2157 51.5358C81.7101 51.9018 81.4042 52.4873 81.4042 53.1094C81.4042 53.9244 81.9198 54.6564 82.6849 54.9357C92.0954 59.2338 98.1161 68.6114 98.1161 78.8608C98.1161 93.3449 86.3339 105.121 71.8541 105.121H30.1503C15.83 105.121 4.29402 93.9206 3.89485 79.616L3.87824 39.2274L16.8514 52.1147C21.8244 56.3728 28.4374 58.7148 35.486 58.7148C41.0578 58.7148 46.3835 57.2444 50.884 54.4733C51.5759 54.0973 51.9685 53.4388 51.9685 52.7268C51.9685 52.1081 51.6792 51.5358 51.1768 51.1633C44.4973 46.1468 40.6718 38.4854 40.6718 30.1522C40.6718 15.6647 52.4573 3.87848 66.9439 3.87848C80.0934 3.87848 91.2934 13.6987 92.9899 26.7257L93.2094 28.4189H105.075L104.689 29.9361Z" fill="#000000"/>
</svg>
